<?xml version="1.0" encoding="utf-8"?>
<!-- Generator: Adobe Illustrator 26.0.2, SVG Export Plug-In . SVG Version: 6.00 Build 0)  -->
<svg version="1.1" id="Laag_1" xmlns="http://www.w3.org/2000/svg" xmlns:xlink="http://www.w3.org/1999/xlink" x="0px" y="0px"
	 viewBox="0 0 1920 346" style="enable-background:new 0 0 1920 346;" xml:space="preserve">
<path d="M1846.3,44.5c7.7,0,12.9,5.5,12.9,12.6c0,10.4-9.8,20-20,20h-132.5l-9.2,44.3H1878c8,0,13.2,5.5,13.2,12.9
	c0,10.7-10.1,19.7-20,19.7h-180.7l-7.7,36.9h165.6c8,0,13.2,5.5,13.2,12.9c0,10.4-9.8,19.7-20,19.7h-166l-9.2,44.3h85.7
	c8,0,13.2,5.5,13.2,12.9c0,10.4-10.1,19.7-20,19.7H186.8c-9.8,0-20-9.2-20-19.7c0-7.4,5.2-12.9,13.2-12.9h85.7l-9.2-44.3H90.6
	c-10.1,0-20-9.2-20-19.7c0-7.4,5.2-12.9,13.2-12.9h165.6l-7.7-36.9H61.1c-9.8,0-20-8.9-20-19.7c0-7.4,5.2-12.9,13.2-12.9h180.4
	l-9.2-44.3H93.1c-10.1,0-20-9.5-20-20c0-7.1,5.2-12.6,12.9-12.6H1846.3z M240.6,60.8l47.3,223.1h1356.5l47.3-223.1H240.6z"/>
<g>
	<path d="M393.2,241.6l-14.9-140.7c-0.2-2.5-0.2-3-0.2-3.7c0-7.7,5-13.9,13.1-13.9c6.7,0,11.9,3.2,12.6,12.1l11.6,124.1h0.5
		l11.9-121.4c1-9.2,7.4-14.9,16.1-14.9c8.7,0,15.1,5.7,16.1,14.9L472,219.6h0.5l11.6-125.4c0.5-5.4,4.5-10.9,11.6-10.9
		c7.7,0,11.6,5.9,11.6,11.6l-0.2,3.5l-15.1,144.2c-1.2,11.1-7.2,17.1-18.3,17.1s-17.3-5.9-18.6-17.1L444,138.8h-0.5l-10.9,102.8
		c-1.2,11.9-7.9,18.1-19.8,18.1C400.9,259.7,394.5,253.7,393.2,241.6z"/>
	<path d="M521.8,246.1V96.9c0-7.9,5.7-13.6,13.6-13.6s13.6,5.7,13.6,13.6v58.5h29.2V96.9c0-7.9,5.7-13.6,13.6-13.6
		s13.6,5.7,13.6,13.6v149.1c0,7.9-5.7,13.6-13.6,13.6s-13.6-5.7-13.6-13.6v-65.9h-29.2v65.9c0,7.9-5.7,13.6-13.6,13.6
		S521.8,254,521.8,246.1z"/>
	<path d="M620.2,246.3c0-1.5,0.2-3,0.5-4.5l23.5-141c2-11.4,9.9-18.6,21.3-18.6c11.4,0,19.1,7.2,21.1,18.6l23.5,141
		c0.2,1.5,0.2,2.7,0.2,4c0,8.4-4.5,13.9-12.4,13.9c-8.2,0-12.9-5.2-14.1-13.1l-3.2-22.8v0.5h-32.5l-3.2,22.8
		c-1.2,8.7-5.9,12.6-12.9,12.6C625.6,259.7,620.2,255.5,620.2,246.3z M677.4,200.7l-12.9-88.2H664l-12.6,88.2H677.4z"/>
	<path d="M735.1,246.1V109.6h-17.6c-7.9,0-12.4-4.5-12.4-12.4s4.5-12.4,12.4-12.4H780c7.9,0,12.4,4.5,12.4,12.4s-4.5,12.4-12.4,12.4
		h-17.6v136.5c0,8.7-5,13.6-13.6,13.6C740.1,259.7,735.1,254.7,735.1,246.1z"/>
	<path d="M864.9,246.1V109.6h-17.6c-7.9,0-12.4-4.5-12.4-12.4s4.5-12.4,12.4-12.4h62.4c7.9,0,12.4,4.5,12.4,12.4
		s-4.5,12.4-12.4,12.4h-17.6v136.5c0,8.7-5,13.6-13.6,13.6C869.9,259.7,864.9,254.7,864.9,246.1z"/>
	<path d="M933.8,246.1V96.9c0-7.9,5.7-13.6,13.6-13.6s13.6,5.7,13.6,13.6v58.5h29.2V96.9c0-7.9,5.7-13.6,13.6-13.6
		c7.9,0,13.6,5.7,13.6,13.6v149.1c0,7.9-5.7,13.6-13.6,13.6c-7.9,0-13.6-5.7-13.6-13.6v-65.9h-29.2v65.9c0,7.9-5.7,13.6-13.6,13.6
		S933.8,254,933.8,246.1z"/>
	<path d="M1037.9,244.6V98.4c0-7.9,5.7-13.6,13.6-13.6h49.8c7.2,0,12.4,5.2,12.4,12.4c0,7.2-5.2,12.4-12.4,12.4h-36.2v45.8h26.5
		c7.2,0,12.4,5.2,12.4,12.4c0,7.2-5.2,12.4-12.4,12.4h-26.5v53.3h36.2c7.2,0,12.4,5.2,12.4,12.4c0,7.2-5.2,12.4-12.4,12.4h-49.8
		C1043.6,258.2,1037.9,252.5,1037.9,244.6z"/>
	<path d="M1167.4,246.1V98.4c0-7.9,5.7-13.6,13.6-13.6h47.6c7.2,0,12.4,5.2,12.4,12.4c0,7.2-5.2,12.4-12.4,12.4h-33.9v48.3h24.3
		c7.2,0,12.4,5.2,12.4,12.4c0,7.2-5.2,12.4-12.4,12.4h-24.3v63.4c0,7.9-5.7,13.6-13.6,13.6C1173.1,259.7,1167.4,254,1167.4,246.1z"
		/>
	<path d="M1252.6,246.1V98.4c0-8.7,5-13.6,13.6-13.6h26.8c28.2,0,40.4,13.1,40.4,39.9v10.7c0,17.8-5.7,29.2-17.8,34.2v0.5
		c13.6,4.2,18.1,17.1,18.1,36.7v27c0,4.7,0.2,7.2,1,10.2c0.7,2.7,1,4.2,1,6.7c0,5.9-4.7,9.2-12.9,9.2c-11.1,0-16.3-5.7-16.3-21.3
		v-33.2c0-16.1-4.7-21.3-17.1-21.3h-9.4v62.2c0,8.7-5,13.6-13.6,13.6C1257.6,259.7,1252.6,254.7,1252.6,246.1z M1289.8,159.1
		c10.2,0,16.3-4.5,16.3-18.3v-13.4c0-12.4-4.2-17.8-13.9-17.8h-12.4v49.5H1289.8z"/>
	<path d="M1352.5,247.6V103.4c0-12.4,6.9-20.1,17.8-20.1c11.6,0,17.3,6.9,20.3,18.1l22.5,87.7h0.5V95.4c0-7.7,4.5-12.1,12.1-12.1
		c7.7,0,12.1,4.5,12.1,12.1v148.4c0,11.9-5.9,15.9-14.4,15.9c-9.4,0-14.1-4.7-17.1-16.1l-29.2-112.5h-0.5v116.4
		c0,7.7-4.5,12.1-12.1,12.1C1356.9,259.7,1352.5,255.2,1352.5,247.6z"/>
	<path d="M1458.3,246.1V96.9c0-7.9,5.7-13.6,13.6-13.6c7.9,0,13.6,5.7,13.6,13.6v60.9l32.7-66.4c2-4,5-8.2,11.6-8.2
		c7.2,0,11.9,5,11.9,11.4c0,2.5-0.7,5-2,7.4l-24.8,46.3l28.2,90.7c1,3,1.2,5.4,1.2,7.7c0,9.2-6.7,12.9-13.1,12.9
		c-7.4,0-11.4-4-14.1-12.6l-20.8-66.1l-10.9,22v43.1c0,7.9-5.7,13.6-13.6,13.6C1464,259.7,1458.3,254,1458.3,246.1z"/>
</g>
</svg>
