<?xml version="1.0" encoding="utf-8"?>
<!-- Generator: Adobe Illustrator 26.0.2, SVG Export Plug-In . SVG Version: 6.00 Build 0)  -->
<svg version="1.1" id="Laag_1" xmlns="http://www.w3.org/2000/svg" xmlns:xlink="http://www.w3.org/1999/xlink" x="0px" y="0px"
	 viewBox="0 0 121 97.6" style="enable-background:new 0 0 121 97.6;" xml:space="preserve">
<style type="text/css">
	.st0{fill:#020203;}
</style>
<g>
	<path class="st0" d="M1.9,10.8c-0.4,0-0.7-0.2-1.1-0.5S0.3,9.6,0.3,9.2V2.8c0-0.4,0.2-0.7,0.5-1.1s0.7-0.5,1.1-0.5h116.6
		c0.4,0,0.7,0.2,1.1,0.5s0.5,0.7,0.5,1.1v6.4c0,0.4-0.2,0.7-0.5,1.1s-0.7,0.5-1.1,0.5H1.9z M1.9,53.6c-0.4,0-0.7-0.2-1.1-0.5
		c-0.4-0.4-0.5-0.7-0.5-1.1v-6.4c0-0.4,0.2-0.7,0.5-1.1S1.6,44,1.9,44h116.6c0.4,0,0.7,0.2,1.1,0.5s0.5,0.7,0.5,1.1V52
		c0,0.4-0.2,0.7-0.5,1.1c-0.4,0.4-0.7,0.5-1.1,0.5H1.9z M1.9,96.4c-0.4,0-0.7-0.2-1.1-0.5s-0.5-0.7-0.5-1.1v-6.4
		c0-0.4,0.2-0.7,0.5-1.1c0.4-0.4,0.7-0.5,1.1-0.5h116.6c0.4,0,0.7,0.2,1.1,0.5c0.4,0.4,0.5,0.7,0.5,1.1v6.4c0,0.4-0.2,0.7-0.5,1.1
		s-0.7,0.5-1.1,0.5H1.9z"/>
</g>
</svg>
