<?xml version="1.0" encoding="utf-8"?>
<!-- Generator: Adobe Illustrator 26.0.2, SVG Export Plug-In . SVG Version: 6.00 Build 0)  -->
<svg version="1.1" id="Laag_1" xmlns="http://www.w3.org/2000/svg" xmlns:xlink="http://www.w3.org/1999/xlink" x="0px" y="0px"
	 viewBox="0 0 127.9 96.6" style="enable-background:new 0 0 127.9 96.6;" xml:space="preserve">
<style type="text/css">
	.st0{fill:#020203;}
</style>
<path class="st0" d="M115.1,0.8c3.3,0,6.1,1.2,8.4,3.5s3.5,5.1,3.5,8.4V84c0,3.3-1.2,6.1-3.5,8.4s-5.1,3.5-8.4,3.5h-103
	c-3.3,0-6.1-1.2-8.4-3.5S0.2,87.3,0.2,84V12.7c0-3.3,1.2-6.1,3.5-8.4s5.1-3.5,8.4-3.5H115.1z M12.1,8.7c-1.2,0-2.1,0.4-2.8,1.1
	c-0.7,0.7-1.1,1.7-1.1,2.8v10.1c5.8,5,18.2,15,37.4,30.2l2.2,2c3.3,2.8,5.9,4.8,7.9,5.9c3.1,2.1,5.8,3.2,7.9,3.2
	c2.1,0,4.8-1.1,7.9-3.2c1.8-1.2,4.4-3.1,7.7-5.9l2.5-2c19.1-15.2,31.6-25.2,37.4-30.2V12.7c0-1.2-0.4-2.1-1.1-2.8
	c-0.7-0.7-1.7-1.1-2.8-1.1H12.1z M115.1,87.9c1.2,0,2.1-0.4,2.8-1.1s1.1-1.7,1.1-2.8V33.2c-5.8,4.6-16.6,13.3-32.4,26l-2.5,2
	c-4,3.3-7.1,5.7-9.4,7.2c-4.1,2.5-7.8,3.7-11.1,3.7c-3.3,0-7-1.2-11.1-3.7c-2.5-1.5-5.6-3.9-9.4-7.2l-2.5-2
	c-15.8-12.7-26.6-21.4-32.4-26V84c0,1.2,0.4,2.1,1.1,2.8c0.7,0.7,1.7,1.1,2.8,1.1H115.1z"/>
</svg>
