<?xml version="1.0" encoding="utf-8"?>
<!-- Generator: Adobe Illustrator 26.0.2, SVG Export Plug-In . SVG Version: 6.00 Build 0)  -->
<svg version="1.1" id="Laag_1" xmlns="http://www.w3.org/2000/svg" xmlns:xlink="http://www.w3.org/1999/xlink" x="0px" y="0px"
	 viewBox="0 0 92.9 92.5" style="enable-background:new 0 0 92.9 92.5;" xml:space="preserve">
<style type="text/css">
	.st0{fill:#68D16B;}
</style>
<path class="st0" d="M46.4,0.5c8.2,0,15.9,2.1,22.9,6.2S81.9,16.4,86,23.4c4.1,7,6.2,14.6,6.2,22.9c0,8.2-2.1,15.9-6.2,22.9
	c-4.1,7-9.7,12.6-16.7,16.7S54.6,92,46.4,92c-8.2,0-15.9-2.1-22.9-6.2S10.9,76.1,6.8,69.1c-4.1-7-6.2-14.6-6.2-22.9
	c0-8.2,2.1-15.9,6.2-22.9c4.1-7,9.7-12.6,16.7-16.7S38.2,0.5,46.4,0.5z M75.7,41.6c1.1,0,2.1-0.4,3-1.2c0.9-0.8,1.3-1.8,1.3-3
	c0-1.8-0.8-3.3-2.4-4.2c-5-2.8-10.9-5-17.7-6.6c-6.5-1.5-13.2-2.2-20.1-2.2c-8.1,0-15.4,1-21.8,3c-0.9,0.2-1.6,0.7-2.2,1.5
	c-0.6,0.7-0.9,1.7-0.9,2.9c0,1.2,0.4,2.2,1.2,3c0.8,0.9,1.8,1.3,3,1.3c0.5,0,1.2-0.1,2-0.4l0.4-0.2c7.8-2.1,16.6-2.6,26.6-1.7
	c10.3,1,18.8,3.4,25.3,7.2C74.1,41.4,74.9,41.6,75.7,41.6z M70,55.7c1,0,1.8-0.3,2.5-1c0.7-0.7,1-1.5,1-2.5c0-1.6-0.7-2.8-2-3.7
	c-4.5-2.7-9.7-4.8-15.3-6.2c-5.7-1.4-11.5-2.1-17.5-2.1c-6,0-12,0.8-17.9,2.4c-2,0.6-3,1.9-3,3.9c0,1,0.4,1.8,1.1,2.5
	c0.7,0.7,1.6,1,2.6,1c0.4,0,0.9-0.1,1.5-0.2l0.7-0.2c7.4-2.1,15.2-2.6,23.4-1.5c7.8,1.1,14.6,3.4,20.5,6.8l0.4,0.2
	C68.7,55.5,69.4,55.7,70,55.7z M65,67.8c0.7,0,1.4-0.3,1.9-0.8s0.8-1.2,0.8-2c0-0.8-0.2-1.4-0.5-1.8c-0.3-0.4-0.8-0.8-1.4-1.2
	c-11.8-7-26.4-8.6-43.7-4.8c-1.6,0.4-2.4,1.4-2.4,3.1c0,0.7,0.2,1.4,0.7,1.9c0.5,0.6,1.2,0.8,2,0.8c0.4,0,1-0.1,1.8-0.2l0.4-0.2
	c15.3-3.2,28-1.7,38.2,4.4C63.7,67.6,64.4,67.8,65,67.8z"/>
</svg>
