<?xml version="1.0" encoding="utf-8"?>
<!-- Generator: Adobe Illustrator 26.0.2, SVG Export Plug-In . SVG Version: 6.00 Build 0)  -->
<svg version="1.1" id="Laag_1" xmlns="http://www.w3.org/2000/svg" xmlns:xlink="http://www.w3.org/1999/xlink" x="0px" y="0px"
	 viewBox="0 0 101.5 72.2" style="enable-background:new 0 0 101.5 72.2;" xml:space="preserve">
<style type="text/css">
	.st0{fill:#E30613;}
</style>
<g>
	<path class="st0" d="M99.1,11.8c0.9,3.3,1.5,8.4,1.8,15.1l0.2,9.2l-0.2,9.2c-0.4,6.9-1,12-1.8,15.3c-0.6,2.1-1.7,3.9-3.3,5.5
		c-1.6,1.6-3.5,2.7-5.7,3.3c-3.2,0.9-10.7,1.5-22.5,1.8l-16.8,0.2L34,71.4c-11.8-0.4-19.3-1-22.5-1.8c-2.2-0.6-4.1-1.7-5.7-3.3
		c-1.6-1.6-2.7-3.4-3.3-5.5C1.6,57.4,1,52.3,0.6,45.4l-0.2-9.2c0-2.7,0.1-5.8,0.2-9.2c0.4-6.8,1-11.8,1.8-15.1
		c0.6-2.2,1.7-4.1,3.3-5.7s3.5-2.7,5.7-3.3C14.7,1.9,22.2,1.3,34,0.9l16.8-0.2l16.8,0.2c11.8,0.4,19.3,1,22.5,1.8
		c2.2,0.6,4.1,1.7,5.7,3.3C97.4,7.7,98.5,9.6,99.1,11.8z M40.5,51.3l26.4-15.1L40.5,21.2V51.3z"/>
</g>
</svg>
